<?xml version="1.0" encoding="UTF-8" standalone="no"?>
<!-- Created with Inkscape (http://www.inkscape.org/) -->

<svg
   width="256.96869mm"
   height="160.52872mm"
   viewBox="0 0 256.96869 160.52872"
   version="1.1"
   id="svg1"
   xml:space="preserve"
   xmlns="http://www.w3.org/2000/svg"
   xmlns:svg="http://www.w3.org/2000/svg"><defs
     id="defs1"><marker
       style="overflow:visible"
       id="Dot"
       refX="0"
       refY="0"
       orient="auto"
       markerWidth="1"
       markerHeight="1"
       viewBox="0 0 1 1"
       preserveAspectRatio="xMidYMid"><path
         transform="scale(0.5)"
         style="fill:context-stroke;fill-rule:evenodd;stroke:none"
         d="M 5,0 C 5,2.76 2.76,5 0,5 -2.76,5 -5,2.76 -5,0 c 0,-2.76 2.3,-5 5,-5 2.76,0 5,2.24 5,5 z"
         id="path17" /></marker><marker
       style="overflow:visible"
       id="marker47"
       refX="0"
       refY="0"
       orient="auto-start-reverse"
       markerWidth="1"
       markerHeight="1"
       viewBox="0 0 1 1"
       preserveAspectRatio="xMidYMid"><path
         transform="scale(0.5)"
         style="fill:context-stroke;fill-rule:evenodd;stroke:context-stroke;stroke-width:1pt"
         d="m 6,0 c -3,1 -7,3 -9,5 0,0 0,-4 2,-5 -2,-1 -2,-5 -2,-5 2,2 6,4 9,5 z"
         id="path47" /></marker><marker
       style="overflow:visible"
       id="marker44"
       refX="0"
       refY="0"
       orient="auto-start-reverse"
       markerWidth="1"
       markerHeight="1"
       viewBox="0 0 1 1"
       preserveAspectRatio="xMidYMid"><path
         transform="scale(0.5)"
         style="fill:context-stroke;fill-rule:evenodd;stroke:context-stroke;stroke-width:1pt"
         d="m 6,0 c -3,1 -7,3 -9,5 0,0 0,-4 2,-5 -2,-1 -2,-5 -2,-5 2,2 6,4 9,5 z"
         id="path44" /></marker><marker
       style="overflow:visible"
       id="marker42"
       refX="0"
       refY="0"
       orient="auto-start-reverse"
       markerWidth="1"
       markerHeight="1"
       viewBox="0 0 1 1"
       preserveAspectRatio="xMidYMid"><path
         transform="scale(0.5)"
         style="fill:context-stroke;fill-rule:evenodd;stroke:context-stroke;stroke-width:1pt"
         d="m 6,0 c -3,1 -7,3 -9,5 0,0 0,-4 2,-5 -2,-1 -2,-5 -2,-5 2,2 6,4 9,5 z"
         id="path42" /></marker><marker
       style="overflow:visible"
       id="marker31"
       refX="0"
       refY="0"
       orient="auto-start-reverse"
       markerWidth="1"
       markerHeight="1"
       viewBox="0 0 1 1"
       preserveAspectRatio="xMidYMid"><path
         transform="scale(0.5)"
         style="fill:context-stroke;fill-rule:evenodd;stroke:context-stroke;stroke-width:1pt"
         d="m 6,0 c -3,1 -7,3 -9,5 0,0 0,-4 2,-5 -2,-1 -2,-5 -2,-5 2,2 6,4 9,5 z"
         id="path31" /></marker><marker
       style="overflow:visible"
       id="marker29"
       refX="0"
       refY="0"
       orient="auto-start-reverse"
       markerWidth="1"
       markerHeight="1"
       viewBox="0 0 1 1"
       preserveAspectRatio="xMidYMid"><path
         transform="scale(0.5)"
         style="fill:context-stroke;fill-rule:evenodd;stroke:context-stroke;stroke-width:1pt"
         d="m 6,0 c -3,1 -7,3 -9,5 0,0 0,-4 2,-5 -2,-1 -2,-5 -2,-5 2,2 6,4 9,5 z"
         id="path29" /></marker><marker
       style="overflow:visible"
       id="ArrowTriangleStylized"
       refX="0"
       refY="0"
       orient="auto-start-reverse"
       markerWidth="1"
       markerHeight="1"
       viewBox="0 0 1 1"
       preserveAspectRatio="xMidYMid"><path
         transform="scale(0.5)"
         style="fill:context-stroke;fill-rule:evenodd;stroke:context-stroke;stroke-width:1pt"
         d="m 6,0 c -3,1 -7,3 -9,5 0,0 0,-4 2,-5 -2,-1 -2,-5 -2,-5 2,2 6,4 9,5 z"
         id="path25" /></marker></defs><g
     id="layer1"
     transform="translate(-25.269717,-34.116887)"><g
       id="g5"
       transform="translate(66.296108,1.6216302)"><rect
         style="fill:#ffffff;stroke:none;stroke-width:0.3"
         id="rect1"
         width="256.96869"
         height="160.52872"
         x="-41.02639"
         y="32.495258" /><g
         id="g1"><g
           id="g4"
           transform="translate(-112.33912,95.927439)"><g
             id="g2"
             transform="matrix(1.0067502,8.2422063e-4,-0.00473403,0.49468583,34.247569,-0.69247032)"><path
               id="path2"
               style="fill:none;stroke:#000000;stroke-width:0.333027"
               d="m 37.232869,17.40824 v 31.345373 h 0.0036 c -0.0099,0.05557 -0.01762,0.111216 -0.02325,0.166915 4.64e-4,2.59205 4.493842,4.693217 10.036597,4.693254 5.542957,9.6e-5 10.03665,-2.10111 10.037114,-4.693254 -7.79e-4,-0.09188 -0.0073,-0.183733 -0.01964,-0.275435 V 17.40824" /><ellipse
               style="fill:none;stroke:#000000;stroke-width:0.294084"
               id="ellipse2"
               cx="47.25"
               cy="17.704203"
               rx="10.036741"
               ry="4.6936469" /></g></g><g
           id="g6"
           transform="translate(-65.665453,36.442674)"><path
             id="path1"
             style="fill:none;stroke:#000000;stroke-width:0.3"
             d="m 71.607515,13.294796 c 2.17e-4,1.004891 4.492958,1.819503 10.035047,1.819527 5.542291,2.7e-5 10.035346,-0.814599 10.035563,-1.819527" /><g
             id="g3"
             transform="matrix(1.0067502,8.2422063e-4,-0.00473403,0.49468583,34.247569,-0.69247032)"><path
               id="path3"
               style="fill:none;stroke:#000000;stroke-width:0.333027"
               d="m 37.232869,17.40824 v 31.345373 h 0.0036 c -0.0099,0.05557 -0.01762,0.111216 -0.02325,0.166915 4.64e-4,2.59205 4.493842,4.693217 10.036597,4.693254 5.542957,9.6e-5 10.03665,-2.10111 10.037114,-4.693254 -7.79e-4,-0.09188 -0.0073,-0.183733 -0.01964,-0.275435 V 17.40824" /><ellipse
               style="fill:none;stroke:#000000;stroke-width:0.294084"
               id="ellipse3"
               cx="47.25"
               cy="17.704203"
               rx="10.036741"
               ry="4.6936469" /></g><path
             id="path5"
             style="fill:none;stroke:#000000;stroke-width:0.3"
             d="m 71.607515,18.586466 c 2.17e-4,1.004891 4.492958,1.819503 10.035047,1.819527 5.542291,2.7e-5 10.035346,-0.814599 10.035563,-1.819527" /></g><g
           id="g45"><rect
             style="fill:none;stroke:#000000;stroke-width:0.3"
             id="rect6"
             width="61.919621"
             height="23.116474"
             x="-14.975573"
             y="71.863892"
             ry="3.6555011" /><text
             xml:space="preserve"
             style="font-size:4.93889px;font-family:sans-serif;-inkscape-font-specification:sans-serif;fill:none;stroke:#000000;stroke-width:0.3"
             x="1.1530336"
             y="84.666061"
             id="text6"><tspan
               id="tspan6"
               style="font-size:4.93889px;fill:#000000;stroke:none;stroke-width:0.3"
               x="1.1530336"
               y="84.666061">ML Pipeline</tspan></text></g><g
           id="g13"
           transform="translate(-103.24828,-12.856084)"><g
             id="g12"
             transform="translate(74.303545,4.0419753)"><rect
               style="fill:none;stroke:#000000;stroke-width:0.349955"
               id="rect7"
               width="15.670307"
               height="5.9700084"
               x="-9.5798359"
               y="83.899994" /><text
               xml:space="preserve"
               style="font-size:2.82222px;font-family:sans-serif;-inkscape-font-specification:sans-serif;fill:#000000;stroke:none;stroke-width:0.3"
               x="-7.2378497"
               y="87.263855"
               id="text7"><tspan
                 id="tspan7"
                 style="font-size:2.82222px;stroke-width:0.3"
                 x="-7.2378497"
                 y="87.263855">raw img</tspan></text><g
               id="g10"
               transform="translate(-15.875004,6.3500003)"><text
                 xml:space="preserve"
                 style="font-size:2.82222px;font-family:sans-serif;-inkscape-font-specification:sans-serif;fill:#000000;stroke:none;stroke-width:0.3"
                 x="7.5788169"
                 y="87.263855"
                 id="text8"><tspan
                   id="tspan8"
                   style="font-size:2.82222px;stroke-width:0.3"
                   x="7.5788169"
                   y="87.263855">latex eqn.</tspan></text><rect
                 style="fill:none;stroke:#000000;stroke-width:0.349955"
                 id="rect9"
                 width="15.670307"
                 height="5.9700084"
                 x="6.2951636"
                 y="83.370827" /></g><g
               id="g11"
               transform="translate(-31.750014,12.170835)"><text
                 xml:space="preserve"
                 style="font-size:2.82222px;font-family:sans-serif;-inkscape-font-specification:sans-serif;fill:#000000;stroke:none;stroke-width:0.3"
                 x="22.395483"
                 y="87.263855"
                 id="text9"><tspan
                   id="tspan9"
                   style="font-size:2.82222px;stroke-width:0.3"
                   x="22.395483"
                   y="87.263855">METADATA</tspan></text><rect
                 style="fill:none;stroke:#000000;stroke-width:0.349955"
                 id="rect10"
                 width="15.670307"
                 height="5.9700084"
                 x="22.170162"
                 y="83.370827" /></g></g><text
             xml:space="preserve"
             style="font-size:2.82223px;font-family:sans-serif;-inkscape-font-specification:sans-serif;fill:none;stroke:#000000;stroke-width:0.3"
             x="64.580353"
             y="86.223343"
             id="text12"><tspan
               id="tspan12"
               style="fill:#000000;stroke:none;stroke-width:0.3"
               x="64.580353"
               y="86.223343">Data Entry</tspan></text></g><g
           id="g29"
           transform="translate(40.944044,25.099445)"><g
             id="g15"
             transform="translate(-4.6439716,42.900479)"><g
               id="g14"
               transform="translate(-19.337838,-6.533316)"><rect
                 style="fill:none;stroke:#000000;stroke-width:0.3;stroke-dasharray:none;stroke-dashoffset:0"
                 id="rect27"
                 width="32.278679"
                 height="16.418919"
                 x="66.770271"
                 y="73.094589"
                 ry="1.9227294" /><path
                 style="fill:none;stroke:#000000;stroke-width:0.3;stroke-dasharray:none;stroke-dashoffset:0"
                 d="M 66.62027,77.95946 H 99.04895"
                 id="path28" /><text
                 xml:space="preserve"
                 style="font-size:2.11667px;font-family:sans-serif;-inkscape-font-specification:sans-serif;text-align:center;text-anchor:middle;fill:none;stroke:#000000;stroke-width:0.3;stroke-dasharray:none;stroke-dashoffset:0"
                 x="81.966118"
                 y="76.045616"
                 id="text28"><tspan
                   id="tspan28"
                   style="fill:#000000;stroke:none;stroke-width:0.3"
                   x="81.966118"
                   y="76.045616">UI</tspan></text><text
                 xml:space="preserve"
                 style="font-size:2.11667px;font-family:sans-serif;-inkscape-font-specification:sans-serif;text-align:center;text-anchor:middle;fill:#000000;stroke:none;stroke-width:0.3;stroke-dasharray:none;stroke-dashoffset:0"
                 x="82.238609"
                 y="83.475113"
                 id="text29"><tspan
                   id="tspan29"
                   style="stroke-width:0.3"
                   x="82.238609"
                   y="83.475113">Equation Image Input</tspan></text></g><rect
               style="fill:none;stroke:#0000ff;stroke-width:0.175706"
               id="rect14"
               width="22.259428"
               height="29.447268"
               x="9.9839697"
               y="60.567802" /><text
               xml:space="preserve"
               style="font-size:4.93889px;font-family:sans-serif;-inkscape-font-specification:sans-serif;fill:none;stroke:#0000ff;stroke-width:0.3"
               x="15.695918"
               y="66.346161"
               id="text14"><tspan
                 id="tspan14"
                 style="font-size:4.93889px;fill:#0000ff;stroke:none;stroke-width:0.3"
                 x="15.695918"
                 y="66.346161">Site</tspan></text><rect
               style="fill:none;stroke:#000000;stroke-width:0.245053;stroke-dasharray:1.96043, 0.245053;stroke-dashoffset:0"
               id="rect15"
               width="83.773369"
               height="39.796337"
               x="2.3564808"
               y="55.494366" /><text
               xml:space="preserve"
               style="font-size:4.9389px;font-family:sans-serif;-inkscape-font-specification:sans-serif;fill:none;stroke:#000000;stroke-width:0.3;stroke-dasharray:none;stroke-dashoffset:0"
               x="35.307152"
               y="60.314186"
               id="text15"><tspan
                 id="tspan15"
                 style="fill:#000000;stroke:none;stroke-width:0.3;stroke-dasharray:none"
                 x="35.307152"
                 y="60.314186">Client 1</tspan></text></g><g
             id="g19"
             transform="translate(88.745016,41.710539)"><g
               id="g20"><g
                 id="g17"
                 transform="translate(-19.337838,-6.533316)"><rect
                   style="fill:none;stroke:#000000;stroke-width:0.3;stroke-dasharray:none;stroke-dashoffset:0"
                   id="rect16"
                   width="32.278679"
                   height="16.418919"
                   x="66.770271"
                   y="73.094589"
                   ry="1.9227294" /><path
                   style="fill:none;stroke:#000000;stroke-width:0.3;stroke-dasharray:none;stroke-dashoffset:0"
                   d="M 66.62027,77.95946 H 99.04895"
                   id="path16" /><text
                   xml:space="preserve"
                   style="font-size:2.11667px;font-family:sans-serif;-inkscape-font-specification:sans-serif;text-align:center;text-anchor:middle;fill:none;stroke:#000000;stroke-width:0.3;stroke-dasharray:none;stroke-dashoffset:0"
                   x="81.966118"
                   y="76.045616"
                   id="text16"><tspan
                     id="tspan16"
                     style="fill:#000000;stroke:none;stroke-width:0.3"
                     x="81.966118"
                     y="76.045616">UI</tspan></text><text
                   xml:space="preserve"
                   style="font-size:2.11667px;font-family:sans-serif;-inkscape-font-specification:sans-serif;text-align:center;text-anchor:middle;fill:#000000;stroke:none;stroke-width:0.3;stroke-dasharray:none;stroke-dashoffset:0"
                   x="82.238609"
                   y="83.475113"
                   id="text17"><tspan
                     id="tspan17"
                     style="stroke-width:0.3"
                     x="82.238609"
                     y="83.475113">Equation Image Input</tspan></text></g><rect
                 style="fill:none;stroke:#0000ff;stroke-width:0.175706"
                 id="rect17"
                 width="22.259428"
                 height="29.447268"
                 x="9.9839697"
                 y="60.567802" /><text
                 xml:space="preserve"
                 style="font-size:4.93889px;font-family:sans-serif;-inkscape-font-specification:sans-serif;fill:none;stroke:#0000ff;stroke-width:0.3"
                 x="15.695918"
                 y="66.346161"
                 id="text18"><tspan
                   id="tspan18"
                   style="font-size:4.93889px;fill:#0000ff;stroke:none;stroke-width:0.3"
                   x="15.695918"
                   y="66.346161">Site</tspan></text><rect
                 style="fill:none;stroke:#000000;stroke-width:0.245053;stroke-dasharray:1.96043, 0.245053;stroke-dashoffset:0"
                 id="rect18"
                 width="83.773369"
                 height="39.796337"
                 x="2.3564808"
                 y="55.494366" /><text
                 xml:space="preserve"
                 style="font-size:4.9389px;font-family:sans-serif;-inkscape-font-specification:sans-serif;fill:none;stroke:#000000;stroke-width:0.3;stroke-dasharray:none;stroke-dashoffset:0"
                 x="35.307152"
                 y="60.314186"
                 id="text19"><tspan
                   id="tspan19"
                   style="fill:#000000;stroke:none;stroke-width:0.3;stroke-dasharray:none"
                   x="35.307152"
                   y="60.314186">Client 2</tspan></text></g></g></g><path
           style="fill:#000000;stroke:#000000;stroke-width:0.3;stroke-dasharray:none;stroke-dashoffset:0;marker-end:url(#ArrowTriangleStylized)"
           d="M 106.77146,134.4112 V 108.01445"
           id="path23" /><path
           style="fill:#000000;stroke:#000000;stroke-width:1.1;stroke-dasharray:none;stroke-dashoffset:0"
           d="m 43.800463,105.26212 172.140977,0.2649"
           id="path24" /><text
           xml:space="preserve"
           style="font-size:4.9389px;font-family:sans-serif;-inkscape-font-specification:sans-serif;fill:#000000;stroke:#000000;stroke-width:0;stroke-dasharray:none;stroke-dashoffset:0"
           x="140.19328"
           y="102.35828"
           id="text24"><tspan
             id="tspan24"
             style="stroke-width:0;stroke-dasharray:none"
             x="140.19328"
             y="102.35828">Message Queue</tspan></text><path
           style="fill:#000000;stroke:#000000;stroke-width:0;stroke-dasharray:none;stroke-dashoffset:0;marker-end:url(#marker29)"
           d="M 193.26083,133.37126 V 107.95945"
           id="path26" /><path
           style="fill:#000000;stroke:#000000;stroke-width:0.3;stroke-dasharray:none;stroke-dashoffset:0;marker-end:url(#marker31)"
           d="m 193.26083,133.37126 -0.13802,-25.41181"
           id="path30" /><g
           id="g32"
           transform="translate(-57.405405,45.006221)"><rect
             style="fill:none;stroke:#000000;stroke-width:0.235615;stroke-dasharray:none;stroke-dashoffset:0"
             id="rect31"
             width="21.180132"
             height="10.348324"
             x="164.99086"
             y="63.701939"
             ry="1.6114866" /><text
             xml:space="preserve"
             style="font-size:3.52778px;font-family:sans-serif;-inkscape-font-specification:sans-serif;fill:none;stroke:#000000;stroke-width:0.3;stroke-dasharray:none;stroke-dashoffset:0"
             x="175.35182"
             y="67.993294"
             id="text31"><tspan
               id="tspan31"
               style="font-size:3.52778px;text-align:center;text-anchor:middle;fill:#000000;stroke:none;stroke-width:0.3"
               x="175.35182"
               y="67.993294">Protobuf</tspan><tspan
               style="font-size:3.52778px;text-align:center;text-anchor:middle;fill:#000000;stroke:none;stroke-width:0.3"
               x="175.35182"
               y="72.403015"
               id="tspan32">Message</tspan></text></g><g
           id="g34"
           transform="translate(29.554055,45.43575)"><rect
             style="fill:none;stroke:#000000;stroke-width:0.235615;stroke-dasharray:none;stroke-dashoffset:0"
             id="rect32"
             width="21.180132"
             height="10.348324"
             x="164.99086"
             y="63.701939"
             ry="1.6114866" /><text
             xml:space="preserve"
             style="font-size:3.52778px;font-family:sans-serif;-inkscape-font-specification:sans-serif;fill:none;stroke:#000000;stroke-width:0.3;stroke-dasharray:none;stroke-dashoffset:0"
             x="175.35182"
             y="67.993294"
             id="text34"><tspan
               id="tspan33"
               style="font-size:3.52778px;text-align:center;text-anchor:middle;fill:#000000;stroke:none;stroke-width:0.3"
               x="175.35182"
               y="67.993294">Protobuf</tspan><tspan
               style="font-size:3.52778px;text-align:center;text-anchor:middle;fill:#000000;stroke:none;stroke-width:0.3"
               x="175.35182"
               y="72.403015"
               id="tspan34">Message</tspan></text></g><g
           id="g36"
           transform="translate(-48.711868,14.209268)"><rect
             style="fill:none;stroke:#000000;stroke-width:0.235615;stroke-dasharray:none;stroke-dashoffset:0"
             id="rect35"
             width="21.180132"
             height="10.348324"
             x="164.99086"
             y="63.701939"
             ry="1.6114866" /><text
             xml:space="preserve"
             style="font-size:3.52778px;font-family:sans-serif;-inkscape-font-specification:sans-serif;fill:none;stroke:#000000;stroke-width:0.3;stroke-dasharray:none;stroke-dashoffset:0"
             x="175.35182"
             y="67.993294"
             id="text36"><tspan
               id="tspan35"
               style="font-size:3.52778px;text-align:center;text-anchor:middle;fill:#000000;stroke:none;stroke-width:0.3"
               x="175.35182"
               y="67.993294">Protobuf</tspan><tspan
               style="font-size:3.52778px;text-align:center;text-anchor:middle;fill:#000000;stroke:none;stroke-width:0.3"
               x="175.35182"
               y="72.403015"
               id="tspan36">Message</tspan></text></g><g
           id="g38"
           transform="translate(26.099996,63.1006)"><rect
             style="fill:none;stroke:#000000;stroke-width:0.3;stroke-dasharray:none;stroke-dashoffset:0"
             id="rect36"
             width="26.744246"
             height="12.648648"
             x="59.582268"
             y="13.337829"
             ry="0" /><text
             xml:space="preserve"
             style="font-size:3.52777px;font-family:sans-serif;-inkscape-font-specification:sans-serif;text-align:center;text-anchor:middle;fill:none;stroke:#000000;stroke-width:0.3;stroke-dasharray:none;stroke-dashoffset:0"
             x="72.062454"
             y="18.102802"
             id="text37"><tspan
               id="tspan37"
               style="fill:#000000;stroke:none;stroke-width:0.3"
               x="72.062454"
               y="18.102802">Ingest</tspan><tspan
               style="fill:#000000;stroke:none;stroke-width:0.3"
               x="72.062454"
               y="22.512514"
               id="tspan38">Service</tspan></text><path
             style="fill:#000000;stroke:#000000;stroke-width:0.6;stroke-dasharray:none;stroke-dashoffset:0"
             d="M -10.202927,-0.78947566 V 8.7632896"
             id="path59" /></g><g
           id="g40"
           transform="translate(-63.39938,-6.6268302)"><g
             id="g41"
             transform="translate(-42.525943,20.836098)"><rect
               style="fill:none;stroke:#000000;stroke-width:0.235615;stroke-dasharray:none;stroke-dashoffset:0"
               id="rect38"
               width="21.180132"
               height="10.348324"
               x="164.99086"
               y="63.701939"
               ry="1.6114866" /><text
               xml:space="preserve"
               style="font-size:3.52778px;font-family:sans-serif;-inkscape-font-specification:sans-serif;fill:none;stroke:#000000;stroke-width:0.3;stroke-dasharray:none;stroke-dashoffset:0"
               x="175.35182"
               y="67.993294"
               id="text40"><tspan
                 style="font-size:3.52778px;text-align:center;text-anchor:middle;fill:#000000;stroke:none;stroke-width:0.3"
                 x="175.35182"
                 y="67.993294"
                 id="tspan40">Formatted</tspan><tspan
                 style="font-size:3.52778px;text-align:center;text-anchor:middle;fill:#000000;stroke:none;stroke-width:0.3"
                 x="175.35182"
                 y="72.403015"
                 id="tspan41">ML Inputs</tspan></text></g></g><path
           style="fill:#000000;stroke:#000000;stroke-width:0.3;stroke-dasharray:none;stroke-dashoffset:0;marker-end:url(#marker42)"
           d="m 128.05524,104.97702 0.03,-15.197219"
           id="path41" /><path
           style="fill:#000000;stroke:#000000;stroke-width:0.3;stroke-dasharray:none;stroke-dashoffset:0;marker-end:url(#marker44)"
           d="m 116.27899,83.085368 h -2.63591"
           id="path43" /><path
           style="fill:#000000;stroke:#000000;stroke-width:0.3;stroke-dasharray:none;stroke-dashoffset:0;marker-end:url(#marker29)"
           d="M 85.682261,82.762751 H 81.106988"
           id="path45" /><path
           style="fill:#000000;stroke:#000000;stroke-width:0.3;stroke-dasharray:none;stroke-dashoffset:0;marker-end:url(#marker47)"
           d="M 59.065535,83.085368 H 48.685187"
           id="path46" /><text
           xml:space="preserve"
           style="font-size:3.52777px;font-family:sans-serif;-inkscape-font-specification:sans-serif;text-align:center;text-anchor:middle;fill:#000000;stroke:#000000;stroke-width:0.3;stroke-dasharray:none;stroke-dashoffset:0"
           x="16.065527"
           y="35.175533"
           id="text47"><tspan
             id="tspan47"
             style="fill:#000000;stroke:none;stroke-width:0.3"
             x="16.065527"
             y="35.175533">saved </tspan><tspan
             style="fill:#000000;stroke:none;stroke-width:0.3"
             x="16.065527"
             y="39.585247"
             id="tspan48">weights/checkpoints</tspan></text><path
           style="fill:#000000;stroke:#000000;stroke-width:0.3;stroke-dasharray:none;stroke-dashoffset:0;marker-end:url(#marker42)"
           d="m -14.975573,83.422125 -5.378291,0.09138"
           id="path48" /><path
           style="fill:#000000;stroke:#000000;stroke-width:0.3;stroke-dasharray:none;stroke-dashoffset:0;marker-end:url(#marker42)"
           d="m -30.689433,92.697562 0.02846,5.995122"
           id="path49" /><g
           id="g51"
           transform="translate(-227.79135,79.039434)"><g
             id="g54"
             transform="translate(21.891892,-2.669896)"><rect
               style="fill:none;stroke:#000000;stroke-width:0.239065;stroke-dasharray:none;stroke-dashoffset:0"
               id="rect50"
               width="20.630606"
               height="10.937383"
               x="164.9926"
               y="63.703663"
               ry="1.7032174" /><text
               xml:space="preserve"
               style="font-size:3.52778px;font-family:sans-serif;-inkscape-font-specification:sans-serif;fill:none;stroke:#000000;stroke-width:0.3;stroke-dasharray:none;stroke-dashoffset:0"
               x="175.35182"
               y="67.993294"
               id="text51"><tspan
                 id="tspan50"
                 style="font-size:3.52778px;text-align:center;text-anchor:middle;fill:#000000;stroke:none;stroke-width:0.3"
                 x="175.35182"
                 y="67.993294">Watcher</tspan><tspan
                 style="font-size:3.52778px;text-align:center;text-anchor:middle;fill:#000000;stroke:none;stroke-width:0.3"
                 x="175.35182"
                 y="72.403015"
                 id="tspan53">Service</tspan><tspan
                 style="font-size:3.52778px;text-align:center;text-anchor:middle;fill:#000000;stroke:none;stroke-width:0.3"
                 x="175.35182"
                 y="76.812744"
                 id="tspan51" /></text><g
               id="g60"
               transform="translate(56.243656,-4.9919646)"><rect
                 style="fill:none;stroke:#000000;stroke-width:0.600001;stroke-dasharray:none;stroke-dashoffset:0"
                 id="rect59"
                 width="24.59585"
                 height="11.259274"
                 x="209.26292"
                 y="37.512779"
                 ry="1.9695599" /><text
                 xml:space="preserve"
                 style="font-size:3.52777px;font-family:sans-serif;-inkscape-font-specification:sans-serif;text-align:center;text-anchor:middle;fill:none;stroke:#000000;stroke-width:0.3;stroke-dasharray:none;stroke-dashoffset:0"
                 x="221.42477"
                 y="41.448002"
                 id="text59"><tspan
                   id="tspan59"
                   style="fill:#000000;stroke:none;stroke-width:0.3;stroke-dasharray:none"
                   x="221.42477"
                   y="41.448002">Edit</tspan><tspan
                   style="fill:#000000;stroke:none;stroke-width:0.3;stroke-dasharray:none"
                   x="221.42477"
                   y="45.857716"
                   id="tspan60">Request</tspan></text></g><path
               style="fill:none;stroke:#000000;stroke-width:0.3;stroke-dasharray:none;stroke-dashoffset:0;marker-end:url(#marker42)"
               d="m 259.1667,28.342581 v -4.682373 l -37.07017,0.172"
               id="path63" /><g
               id="g64"
               transform="translate(-13.606376,-15.575302)"><rect
                 style="fill:none;stroke:#000000;stroke-width:0.600001;stroke-dasharray:none;stroke-dashoffset:0"
                 id="rect63"
                 width="24.59585"
                 height="11.259274"
                 x="209.26292"
                 y="37.512779"
                 ry="1.9695599" /><text
                 xml:space="preserve"
                 style="font-size:3.52777px;font-family:sans-serif;-inkscape-font-specification:sans-serif;text-align:center;text-anchor:middle;fill:none;stroke:#000000;stroke-width:0.3;stroke-dasharray:none;stroke-dashoffset:0"
                 x="221.42477"
                 y="41.448002"
                 id="text64"><tspan
                   id="tspan63"
                   style="fill:#000000;stroke:none;stroke-width:0.3;stroke-dasharray:none"
                   x="221.42477"
                   y="41.448002">Edit</tspan><tspan
                   style="fill:#000000;stroke:none;stroke-width:0.3;stroke-dasharray:none"
                   x="221.42477"
                   y="45.857716"
                   id="tspan64">Request</tspan></text></g><path
               style="fill:none;stroke:#000000;stroke-width:0.3;stroke-dasharray:none;stroke-dashoffset:0;marker-end:url(#marker42)"
               d="m 207.95447,33.196749 v 6.917144 h -19.15942"
               id="path64" /><path
               d="m 403.08624,16.438066 h -5.2491 a 0.47734787,0.47734787 0 0 1 -0.47716,-0.477099 v -5.470562 c 0,-0.40511 -0.3285,-0.733727 -0.73342,-0.733727 h -1.8738 c -0.40517,0 -0.73348,0.328617 -0.73348,0.733727 v 5.437434 c 0,0.282107 -0.22806,0.511402 -0.51016,0.512636 l -1.7202,0.0082 c -0.28451,0.0014 -0.51566,-0.229295 -0.5151,-0.513559 l 0.0107,-5.443478 c 7.2e-4,-0.405727 -0.32769,-0.73496 -0.73342,-0.73496 h -1.87225 c -0.40523,0 -0.73348,0.328616 -0.73348,0.733726 V 25.80872 c 0,0.35989 0.29154,0.651432 0.65113,0.651432 h 14.48977 c 0.35989,0 0.65143,-0.291542 0.65143,-0.651432 v -8.719216 c 0,-0.359897 -0.29154,-0.651439 -0.65143,-0.651439 z m -2.46151,5.751434 c 0,0.471609 -0.38235,0.854018 -0.85396,0.854018 h -1.48084 c -0.47167,0 -0.85402,-0.382409 -0.85402,-0.854018 v -1.48084 c 0,-0.471674 0.38235,-0.854018 0.85402,-0.854018 h 1.48084 c 0.47161,0 0.85396,0.382344 0.85396,0.854018 z"
               fill="#ff6600"
               id="path1-0"
               style="stroke-width:0.0616888" /><g
               id="g65"
               transform="matrix(0.00877862,0,0,0.00877862,167.15957,34.188854)"><path
                 d="M 232.9,210.3 C 205.1,87.5 147.1,54.8 132.3,31.7 126.2,21.5 120.8,10.9 116.1,0 115.3,10.9 113.9,17.8 104.6,26.1 86,42.7 6.9,107.1 0.3,246.6 c -6.2,130.1 95.6,210.3 109.1,218.6 10.3,5.1 22.9,0.1 29.1,-4.6 49,-33.6 116.1,-123.4 94.4,-250.3"
                 style="fill:#10aa50"
                 id="path1-4" /><path
                 d="m 120.3,396 c -2.6,32.2 -4.4,50.9 -10.9,69.3 0,0 4.3,30.7 7.3,63.1 h 10.6 c 2.5,-22.9 6.4,-45.6 11.6,-68 -13.8,-6.8 -18,-36.2 -18.6,-64.4 z"
                 style="fill:#b8c4c2"
                 id="path2-8" /><path
                 d="M 138.9,460.4 C 125,454 121,424 120.3,396 c 3.4,-46.2 4.4,-92.5 3,-138.8 -0.7,-24.3 0.3,-225 -6,-254.4 4.3,10 9.3,19.6 14.9,28.9 14.8,23.1 72.8,55.8 100.7,178.6 21.7,126.6 -45,216.2 -94,250.1 z"
                 style="fill:#12924f"
                 id="path3-4" /><path
                 class="st3"
                 d="m 1969.8,416 c -16.7,0 -30.2,-13.5 -30.2,-30.2 0,-16.7 13.5,-30.2 30.2,-30.2 16.5,0 29.9,13.3 30.2,29.7 0.4,16.4 -12.5,30.1 -29,30.6 -0.4,0.1 -0.8,0.1 -1.2,0.1 m 0,-57.6 c -15.2,-0.1 -27.5,12.1 -27.6,27.3 -0.1,15.2 12.1,27.5 27.3,27.6 15.2,0.1 27.5,-12.1 27.6,-27.3 v -0.1 c 0.3,-14.9 -11.6,-27.2 -26.5,-27.5 h -0.8 m 7.3,46.5 -7.8,-16.8 h -6.3 v 16.8 h -4.6 v -38.2 h 11.3 c 8.4,0 11.9,3.6 11.9,10.7 0,5.6 -2.6,9.1 -7.5,10.2 l 8,17.3 z m -13.9,-20.7 h 6.6 c 5.3,0 7.4,-1.8 7.4,-6.7 0,-4.9 -1.9,-6.5 -8,-6.5 h -6 z m -442.3,4.3 c 8.2,6.5 24.5,9.2 38.9,9.2 18.6,0 36.9,-3.5 54.8,-19.6 18.2,-16.5 30.7,-41.8 30.7,-82.2 0,-38.8 -14.8,-70.3 -45.1,-88.7 -17.1,-10.7 -39.2,-15 -64.5,-15 -7.3,0 -14.8,0.4 -19,2.3 -1.7,1.4 -3,3.3 -3.5,5.5 -0.8,6.9 -0.8,59.5 -0.8,90.6 0,31.9 0,76.4 0.8,81.8 0.3,4.7 2.7,12.8 7.7,16.1 M 1443.4,175 c 6.6,0 31.7,1.1 43.4,1.1 21.8,0 36.9,-1.1 77.7,-1.1 34.2,0 62.9,9.2 83.5,26.9 24.9,21.5 38.2,51.5 38.2,88 0,51.9 -23.6,81.8 -47.4,98.7 -23.6,17.7 -54.4,27.7 -98.2,27.7 -23.3,0 -63.3,-0.8 -96.7,-1.1 h -0.7 c -1.6,-3.1 2.9,-15.1 5.6,-15.4 9.1,-1 11.5,-1.4 15.7,-3.1 7.1,-2.9 8.7,-6.5 9.5,-19.2 1.2,-23.8 0.8,-52.2 0.8,-84.5 0,-23 0.4,-68 -0.4,-82.2 -1.2,-11.9 -6.2,-15 -16.4,-17.3 -7.2,-1.5 -14.5,-2.7 -21.8,-3.5 -0.8,-2.3 5.2,-12.7 7.1,-15 m 339.1,19.5 c -1.5,0.4 -3.5,4.2 -3.5,6.1 -0.4,13.8 -0.8,49.9 -0.8,74.9 0.2,1 1,1.7 1.9,1.9 5,0.4 17.5,0.8 28,0.8 14.8,0 23.3,-1.9 28,-4.2 12.4,-6.1 18.2,-19.6 18.2,-34.2 0,-33.4 -23.3,-46.1 -57.9,-46.1 -4.7,0 -9.4,0.2 -13.9,0.8 m 88.1,153.6 c 0,-33.8 -24.9,-53 -70.3,-53 -1.9,0 -16.4,-0.4 -19.8,0.4 -1.2,0.4 -2.3,1.1 -2.3,1.9 0,24.2 -0.4,63 0.8,78.3 0.8,6.5 5.5,15.7 11.3,18.4 6.2,3.5 20.2,4.2 29.9,4.2 26.7,0.1 50.4,-14.8 50.4,-50.2 M 1712.2,175.7 c 3.5,0 13.8,1.1 40.3,1.1 24.9,0 45.1,-0.8 69.1,-0.8 29.9,0 71.1,10.8 71.1,55.3 0,21.8 -15.5,39.6 -35.7,48 -1.2,0.4 -1.2,1.1 0,1.5 28.7,7.3 54,25 54,58.8 0,33 -20.6,53.8 -50.5,66.8 -18.2,8.1 -40.8,10.7 -63.6,10.7 -17.5,0 -64.3,-1.8 -90.3,-1.5 -2.7,-1.1 2.5,-13.5 4.8,-15.4 6,-0.2 11.9,-1.1 17.6,-2.8 9.3,-2.3 10.4,-5.3 11.6,-19.1 0.8,-11.9 0.8,-54.5 0.8,-84.9 0,-41.5 0.4,-69.5 0,-83.3 -0.4,-10.7 -4.3,-14.2 -11.7,-16.1 -5.8,-1.2 -15.5,-2.3 -23.3,-3.5 -2.1,-1.8 3.9,-13.3 5.8,-14.8 M 319,416 c -1,-2.5 -1.4,-5.1 -1.2,-7.8 -0.1,-1.8 0.3,-3.6 1.2,-5.2 5,-0.7 10,-1.7 14.9,-3 6.9,-1.7 9.5,-5.5 9.9,-14.2 1.1,-20.7 1.2,-59.6 0.8,-86.9 v -0.8 c 0,-2.9 0,-6.9 -3.6,-9.8 -6.4,-4 -13.3,-7.1 -20.6,-9.1 -3.3,-1 -5.1,-2.7 -5,-4.7 0.1,-2 2.1,-4.4 6.4,-5.2 11.3,-1.1 40.7,-8.2 52.3,-13.5 1.2,1.6 1.7,3.5 1.5,5.5 0,1.2 -0.2,2.5 -0.3,3.8 -0.3,3.9 -0.7,8.2 -0.7,12.6 0.2,1.6 1.7,2.7 3.2,2.5 0.6,-0.1 1.2,-0.4 1.6,-0.8 22.1,-17.3 41.8,-23.5 51.9,-23.5 16.7,0 29.7,8 39.7,24.4 0.5,0.8 1.3,1.3 2.3,1.3 0.8,0 1.6,-0.4 2.1,-1.1 20.3,-15.4 40.4,-24.6 53.8,-24.6 31.8,0 50.8,23.8 50.8,63.6 0,11.5 -0.1,26 -0.2,39.5 -0.1,11.9 -0.2,23 -0.2,30.7 0,1.8 2.5,7.1 6.3,8.1 4.7,2.3 11.4,3.4 19.9,4.9 h 0.3 c 0.6,2.3 -0.7,11.2 -2,13 -2.1,0 -5,-0.2 -8.7,-0.4 -6.6,-0.3 -15.7,-0.8 -26.2,-0.8 -21.1,0 -32.2,0.4 -42.7,1.1 -0.8,-2.6 -1.1,-11.1 -0.1,-12.9 4.4,-0.7 8.7,-1.6 12.9,-2.8 6.7,-2.2 8.7,-5.3 9.1,-14.2 0.2,-6.3 1.4,-62.3 -0.8,-75.5 -2,-13.8 -12.4,-29.9 -35,-29.9 -8.4,0 -22,3.5 -34.9,13.3 -0.8,0.9 -1.3,2.1 -1.3,3.3 v 0.3 c 1.5,7.2 1.5,15.5 1.5,28.2 0,7.3 0,14.9 -0.1,22.4 -0.1,15.4 -0.2,30 0.1,41 0,7.5 4.5,9.3 8.2,10.7 2,0.4 3.5,0.8 5.1,1.2 3,0.7 6.2,1.5 10.9,2.3 0.7,3.2 0.6,6.5 -0.2,9.7 -0.2,1.2 -0.7,2.3 -1.4,3.3 -11.7,-0.4 -23.8,-0.7 -41.2,-0.7 -5.3,0 -13.9,0.2 -21.5,0.4 -6.2,0.2 -12,0.3 -15.3,0.3 -0.9,-2.1 -1.3,-4.4 -1.2,-6.7 -0.2,-2.2 0.2,-4.3 1.2,-6.3 l 4.7,-0.9 c 4.1,-0.7 7.6,-1.3 10.9,-2.2 5.7,-1.8 7.9,-4.9 8.3,-12.3 1.1,-17.1 2,-66.3 -0.4,-78.7 -4.1,-19.8 -15.4,-29.8 -33.5,-29.8 -10.6,0 -24,5.1 -34.9,13.3 -2.1,2.1 -3.3,4.9 -3.2,7.9 v 20.3 c 0,24.7 -0.2,55.5 0.4,68.8 0.4,4.1 1.8,9 9.5,10.8 1.7,0.5 4.6,1 8,1.5 1.9,0.3 4.1,0.7 6.3,1.1 0.7,4.4 0.3,8.8 -1,13 -3.4,0 -7.5,-0.2 -12.3,-0.4 -7.3,-0.3 -16.4,-0.7 -26.6,-0.7 -12.1,0 -20.6,0.4 -27.4,0.7 -4.4,0.4 -8.3,0.6 -12.3,0.6 M 708.9,272.4 c -6.6,-0.1 -13,1.7 -18.5,5.2 -13.5,8.2 -20.4,24.6 -20.4,48.7 0,45.1 22.6,76.5 54.9,76.5 8.7,0.3 17.1,-2.7 23.7,-8.4 9.9,-8.1 15.2,-24.6 15.2,-47.8 -0.1,-44.4 -22.1,-74.2 -54.9,-74.2 m 6.2,147.1 c -58.4,0 -79.1,-42.8 -79.1,-82.9 0,-28 11.4,-49.9 34,-65 15.8,-9.8 33.9,-15.1 52.5,-15.5 44.5,0 75.6,32 75.6,77.9 0,31.2 -12.4,55.8 -35.9,71.2 -11.3,6.8 -30.9,14.3 -47.1,14.3 m 588,-147.1 c -6.6,-0.1 -13,1.7 -18.6,5.2 -13.5,8.2 -20.4,24.6 -20.4,48.7 0,45.1 22.6,76.5 54.9,76.5 8.7,0.3 17.2,-2.7 23.7,-8.4 9.9,-8.1 15.2,-24.6 15.2,-47.8 0,-44.4 -22,-74.2 -54.8,-74.2 m 6.2,147.1 c -58.4,0 -79.1,-42.8 -79.1,-82.9 0,-28 11.4,-49.9 34,-65.1 15.8,-9.8 33.9,-15.2 52.5,-15.5 44.5,0 75.6,32 75.6,77.9 0,31.2 -12.4,55.8 -35.9,71.2 -11.3,6.9 -30.9,14.4 -47.1,14.4 M 1106.6,270.8 c -18,0 -29.6,14.2 -29.6,36.2 0,22 10,48.1 38.2,48.1 4.8,0 13.6,-2.1 17.9,-6.9 6.5,-6 10.9,-18.5 10.9,-31.6 0,-28.6 -14,-45.8 -37.4,-45.8 m -2.3,151.8 c -5.1,-0.1 -10.1,1.2 -14.5,3.6 -14.2,9.1 -20.8,18.2 -20.8,28.7 0,9.9 3.8,17.8 12.1,24.7 10,8.5 23.5,12.6 41.2,12.6 34.9,0 50.5,-18.8 50.5,-37.3 0,-12.9 -6.5,-21.6 -19.9,-26.5 -10.3,-3.8 -27.5,-5.8 -48.6,-5.8 m 2.4,89.1 c -20.9,0 -36,-4.4 -48.9,-14.3 -12.5,-9.7 -18.2,-24 -18.2,-34 0.1,-6.4 2.6,-12.5 6.9,-17.3 3.6,-4.1 12.1,-11.9 31.6,-25.3 0.6,-0.3 1,-0.9 1,-1.5 0,-0.8 -0.5,-1.4 -1.2,-1.6 -16.1,-6.2 -20.9,-16.4 -22.4,-21.8 0,-0.2 0,-0.5 -0.2,-0.9 -0.5,-2.1 -0.9,-4.2 2,-6.3 2.3,-1.6 5.9,-3.7 9.7,-6 5.4,-3 10.7,-6.4 15.6,-10.2 1,-1 0.9,-2.7 -0.1,-3.6 -0.2,-0.1 -0.3,-0.3 -0.5,-0.4 -23.8,-8 -35.8,-25.7 -35.8,-52.7 -0.1,-17.1 8.1,-33.2 22,-43.1 9.6,-7.6 33.6,-16.7 49.2,-16.7 h 0.9 c 16,0.4 25.1,3.7 37.6,8.4 7.1,2.6 14.7,3.8 22.2,3.5 13.3,0 19.1,-4.2 24,-9.1 0.8,2.2 1.2,4.5 1.3,6.9 0.3,5.6 -1.2,11.1 -4.3,15.8 -2.7,3.8 -9.1,6.5 -14.9,6.5 -0.6,0 -1.2,0 -1.8,-0.1 -3.1,-0.2 -6.1,-0.7 -9.1,-1.5 l -1.5,0.5 c -0.5,0.7 -0.2,1.5 0.2,2.4 0.1,0.2 0.2,0.4 0.2,0.6 1.1,4.9 1.8,9.8 2.2,14.7 0,28.3 -11.1,40.6 -23.2,49.7 -11.7,8.7 -25.5,14.1 -40,15.5 -0.3,0 -1.8,0.1 -4.7,0.4 -1.8,0.2 -4.2,0.4 -4.5,0.4 h -0.3 c -2.6,0.7 -9.5,4 -9.5,10 0,5 3.1,11.3 17.9,12.4 l 9.6,0.7 c 19.5,1.4 43.8,3.1 55.3,6.9 15.6,5.5 25.9,20.3 25.6,36.9 0,25.4 -18,49.2 -48.2,63.8 -14.2,6.8 -29.8,10.3 -45.6,10.2 m -89.4,-109 c -8.5,-1.1 -14.8,-2.3 -22.1,-5.8 -1.4,-1.5 -2.4,-3.4 -2.7,-5.5 -0.8,-11.9 -0.8,-46.5 -0.8,-69.1 0,-18.5 -3.1,-34.5 -10.9,-46.1 -9.3,-13.1 -22.5,-20.7 -39.6,-20.7 -15.1,0 -35.3,10.4 -52,24.6 -0.4,0.4 -3,2.8 -2.9,-1 0.1,-3.8 0.6,-11.5 1,-16.4 0.3,-2.6 -0.6,-5.3 -2.5,-7.1 -10.9,5.5 -41.5,12.7 -52.8,13.8 -8.3,1.6 -10.3,9.5 -1.5,12.3 h 0.1 c 7.1,1.9 13.8,4.9 20,8.8 3.5,2.7 3.1,6.5 3.1,9.6 0.4,25.7 0.4,65.3 -0.8,86.8 -0.4,8.5 -2.7,11.5 -8.9,13.1 l 0.6,-0.2 c -4.7,1.2 -9.5,2.1 -14.4,2.7 -1.9,1.9 -1.9,13.1 0,15.4 3.9,0 23.6,-1.1 40,-1.1 22.5,0 34.2,1.1 40,1.1 2.3,-2.7 3.1,-13.1 1.6,-15.4 -5.4,-0.2 -10.7,-1 -15.9,-2.3 -6.2,-1.5 -7.8,-4.6 -8.1,-11.5 -0.8,-18.1 -0.8,-56.5 -0.8,-82.6 0,-7.3 1.9,-10.7 4.3,-12.7 7.8,-6.9 20.6,-11.5 31.9,-11.5 10.9,0 18.2,3.5 23.6,8.1 6.4,5.5 10.3,13.3 11.1,21.7 1.5,14.5 1.1,43.8 1.1,69.1 0,13.8 -1.1,17.3 -6.2,18.8 -2.3,1.1 -8.5,2.3 -15.9,3.1 -2.3,2.3 -1.6,13.1 0,15.4 10.1,0 21.8,-1.1 38.8,-1.1 21.4,0 35,1.1 40.4,1.1 2,-2.7 2.8,-12.8 1.2,-15.4"
                 id="path4-0" /></g></g></g><path
           style="fill:#000000;stroke:#000000;stroke-width:0.3;stroke-dasharray:none;stroke-dashoffset:0;marker-end:url(#marker42)"
           d="m -30.7766,121.79589 -0.18256,14.96289"
           id="path54" /><path
           style="fill:none;stroke:#000000;stroke-width:0.3;stroke-dasharray:none;stroke-dashoffset:0;marker-end:url(#marker31)"
           d="m -30.591559,151.01058 3e-6,24.5267 h 44.790955 v 9.97594"
           id="path55" /><path
           style="fill:#0000ff;stroke:#0000ff;stroke-width:0.9;stroke-dasharray:none;stroke-dashoffset:0"
           d="M 7.1474407,186.72945 H 207.52621"
           id="path56" /><text
           xml:space="preserve"
           style="font-size:3.52777px;font-family:sans-serif;-inkscape-font-specification:sans-serif;text-align:center;text-anchor:middle;fill:#0000ff;stroke:#0000ff;stroke-width:0.899999;stroke-dasharray:none;stroke-dashoffset:0"
           x="118.11092"
           y="192.29533"
           id="text56"><tspan
             id="tspan56"
             style="fill:#0000ff;stroke:none;stroke-width:0.9"
             x="118.11092"
             y="192.29533">Data Hosting Service(s)</tspan></text><path
           style="fill:#0000ff;stroke:#0000ff;stroke-width:0.3;stroke-dasharray:none;stroke-dashoffset:0;marker-end:url(#Dot)"
           d="M 57.413754,186.72945 V 158.01499"
           id="path57" /><path
           style="fill:#0000ff;stroke:#0000ff;stroke-width:0.3;stroke-dasharray:none;stroke-dashoffset:0;marker-end:url(#Dot)"
           d="m 151.97055,186.27945 v -29.4544"
           id="path58" /><path
           style="fill:none;stroke:#000000;stroke-width:0.3;stroke-dasharray:none;stroke-dashoffset:0;marker-end:url(#marker42)"
           d="m 57.413754,128.56772 -0.04262,-19.97737"
           id="path62" /></g></g></g><style
     id="style1">.st3{fill:#21313c}</style></svg>
